{"title":"The Eagle 2011 TS XviD - iLLUSiON","uid":6175992,"size":1456668532,"categoryP":"video","categoryS":"movies","magnet":"?xt=urn:btih:3ea9b84ac65a50300f66df1b512a7d9d305a39d7&amp;dn=The+Eagle+2011+TS+XviD+-+iLLUSiON&amp;tr=udp%3A%2F%2Ftracker.openbittorrent.com%3A80&amp;tr=udp%3A%2F%2Fopen.demonii.com%3A1337&amp;tr=udp%3A%2F%2Ftracker.coppersurfer.tk%3A6969&amp;tr=udp%3A%2F%2Fexodus.desync.com%3A6969","seeders":0,"leechers":0,"uploader":"hiest","files":-1,"time":1297728261,"description":"Movie Info\nPlot: In Roman-ruled Britain, a young Roman soldier endeavors to honor his father's memory by finding his lost legion's golden emblem. \nIMDB: http://www.imdb.com/title/tt1034389/\nIMDB Rating: 6.4\nTrailer:\n\n\n\nGeneral Info\nSize: 1.34GB\nFormat: AVI\nRuntime: 1:45:49\n\n\n\nSources\nVideo - Orel.Devjatogo.legiona.2011.D.CAMRip.ELEKTRI4KA\nAudio - The Eagle 2011 TS XViD - IMAGiNE\n(THANKS)\n\n\n\nVideo Info\nID : 0\nFormat : MPEG-4 Visual\nFormat profile : Advanced Simple@L5\nFormat settings, BVOP : Yes\nFormat settings, QPel : No\nFormat settings, GMC : No warppoints\nFormat settings, Matrix : Default (H.263)\nMuxing mode : Packed bitstream\nCodec ID : XVID\nCodec ID/Hint : XviD\nDuration : 1h 45mn\nBit rate : 1 677 Kbps\nWidth : 720 pixels\nHeight : 304 pixels\nDisplay aspect ratio : 2.35:1\nFrame rate : 25.000 fps\nColor space : YUV\nChroma subsampling : 4:2:0\nBit depth : 8 bits\nScan type : Progressive\nCompression mode : Lossy\nBits/(Pixel*Frame) : 0.306\nStream size : 1.24 GiB (92%)\nWriting library : XviD 1.0.3 (UTC 2004-12-20)\n\n\n\nAudio Info\nID : 1\nFormat : MPEG Audio\nFormat version : Version 1\nFormat profile : Layer 3\nCodec ID : 55\nCodec ID/Hint : MP3\nDuration : 1h 45mn\nBit rate mode : Constant\nBit rate : 128 Kbps\nChannel(s) : 2 channels\nSampling rate : 44.1 KHz\nCompression mode : Lossy\nStream size : 96.9 MiB (7%)\nAlignment : Split accross interleaves\nInterleave, duration : 40 ms (1.00 video frame)\nInterleave, preload duration : 500 ms\n\n\n\nEncoders Notes\nI dropped the russian cam into vdubmod.\nI used a color de-noiser on a high setting.\nThen i used a normal de-noiser.\nI also increased the gamma, saturation &amp; lowered the brightness.\nThe colours looked off so i changed them with a rgb eq.\nThen i sharpened it.\nFinaly i muxed my encode to imagines line audio.\nIts not great but it is just about watchable on ur pc screen.\nThe source was prety blurry &amp; there wasnt that much i could do about it.\nAs its late i thought id do a screenshot comparison beetween mine &amp; imagines. &lt;a href=&quot;\nhttp://screenshotcomparison.com/comparison/28433&quot; rel=&quot;nofollow&quot; target=&quot;_NEW&quot;&gt;\nhttp://screenshotcomparison.com/comparison/28433&lt;/a&gt;\nRemember to download the sample first, to check ur happy with the quality.\nHopefully another video source comes along soon.\nEnjoy..\n\n\n\nI am looking for;\nCammers, Cams, Screeners (any type), Cam audio, Line audio, \nUn-released R6's R5's R4's R2's R1's, \nA 25GB+ FTP server, A Windows Server\n&amp; a syncer. \nIf you can provide any of these please\ncontact me at &lt;a class=&quot;__cf_email__&quot; href=&quot;/cdn-cgi/l/email-protection&quot; data-cfemail=&quot;a7cecbcbd2d4cec8c9e7cfd2d4cfcac6cecb89cac2&quot;&gt;[email&amp;#160;protected]&lt;/a&gt;&lt;script cf-hash='f9e31' type=&quot;text/javascript&quot;&gt;\n/* &lt;![CDATA[ */!function(){try{var t=&quot;currentScript&quot;in document?document.currentScript:function(){for(var t=document.getElementsByTagName(&quot;script&quot;),e=t.length;e--;)if(t[e].getAttribute(&quot;cf-hash&quot;))return t[e]}();if(t&amp;&amp;t.previousSibling){var e,r,n,i,c=t.previousSibling,a=c.getAttribute(&quot;data-cfemail&quot;);if(a){for(e=&quot;&quot;,r=parseInt(a.substr(0,2),16),n=2;a.length-n;n+=2)i=parseInt(a.substr(n,2),16)^r,e+=String.fromCharCode(i);e=document.createTextNode(e),c.parentNode.replaceChild(e,c)}}}catch(u){}}();/* ]]&gt; */&lt;/script&gt;","torrent":{"xt":"urn:btih:3ea9b84ac65a50300f66df1b512a7d9d305a39d7","amp;dn":"The+Eagle+2011+TS+XviD+-+iLLUSiON","amp;tr":["udp%3A%2F%2Ftracker.openbittorrent.com%3A80","udp%3A%2F%2Fopen.demonii.com%3A1337","udp%3A%2F%2Ftracker.coppersurfer.tk%3A6969","udp%3A%2F%2Fexodus.desync.com%3A6969"],"infoHash":"3ea9b84ac65a50300f66df1b512a7d9d305a39d7","infoHashBuffer":{"type":"Buffer","data":[62,169,184,74,198,90,80,48,15,102,223,27,81,42,125,157,48,90,57,215]},"announce":[],"urlList":[]}}